/* XPM */
static const char *enemy[] = {
/* columns rows colors chars-per-pixel */
"64 64 218 2 ",
"   c #141414",
".  c #181615",
"X  c #1C1C1C",
"o  c #181A16",
"O  c #0E0F0C",
"+  c #361113",
"@  c #2C1317",
"#  c #1C261B",
"$  c #242C1B",
"%  c #212718",
"&  c #28351E",
"*  c #201F20",
"=  c #242424",
"-  c #282627",
";  c #282728",
":  c #262828",
">  c #2B2C2C",
",  c #352E28",
"<  c #2B3622",
"1  c #2D3923",
"2  c #2E332B",
"3  c #273925",
"4  c #313C29",
"5  c #313B28",
"6  c #2E2F30",
"7  c #2E3131",
"8  c #333434",
"9  c #363936",
"0  c #363939",
"q  c #3B3C3C",
"w  c #373639",
"e  c #302F30",
"r  c #74141C",
"t  c #68161B",
"y  c #691A22",
"u  c #5D3136",
"i  c #5B3A3D",
"p  c #4F3030",
"a  c #6A292E",
"s  c #7C2827",
"d  c #732E34",
"f  c #653236",
"g  c #324224",
"h  c #35432B",
"j  c #39472D",
"k  c #3A4A2D",
"l  c #384A2B",
"z  c #3C4D32",
"x  c #3C403E",
"c  c #394833",
"v  c #3D5435",
"b  c #40483C",
"n  c #425435",
"m  c #445834",
"M  c #445439",
"N  c #4A5C3B",
"B  c #465839",
"V  c #4D633D",
"C  c #4A6037",
"Z  c #50693C",
"A  c #3E3F40",
"S  c #5D3D42",
"D  c #403F42",
"F  c #3E4242",
"G  c #3C4C50",
"H  c #424444",
"J  c #464748",
"K  c #464B4B",
"L  c #4A4D4D",
"P  c #454847",
"I  c #5E4245",
"U  c #42504F",
"Y  c #4A504E",
"T  c #4A5942",
"R  c #4C4F51",
"E  c #465251",
"W  c #4C5353",
"Q  c #4B5856",
"!  c #4B5B5B",
"~  c #525554",
"^  c #515957",
"/  c #545B5B",
"(  c #5B5C5D",
")  c #52584A",
"_  c #645052",
"`  c #516641",
"'  c #556C43",
"]  c #5A6D4A",
"[  c #5A7345",
"{  c #5C754A",
"}  c #5E794B",
"|  c #5D7A45",
" . c #56615F",
".. c #59625E",
"X. c #5D6853",
"o. c #4F6540",
"O. c #627C4C",
"+. c #657A57",
"@. c #5C5E60",
"#. c #566361",
"$. c #5B6563",
"%. c #5C6966",
"&. c #5D6C69",
"*. c #47636C",
"=. c #636464",
"-. c #656864",
";. c #626D6B",
":. c #6A6B6C",
">. c #676768",
",. c #63716E",
"<. c #6C7468",
"1. c #72786D",
"2. c #6D6E71",
"3. c #657471",
"4. c #6A7573",
"5. c #6A7976",
"6. c #6D7C7A",
"7. c #737474",
"8. c #7B7C7B",
"9. c #757B77",
"0. c #8C0C16",
"q. c #950E18",
"w. c #9B0E19",
"e. c #990814",
"r. c #98131D",
"t. c #8C141D",
"y. c #AB141E",
"u. c #B4131C",
"i. c #B8111B",
"p. c #A20E18",
"a. c #8E1C23",
"s. c #AD1620",
"d. c #B71821",
"f. c #892A30",
"g. c #C0141F",
"h. c #C61923",
"j. c #D41921",
"k. c #5F8047",
"l. c #678051",
"z. c #6A8654",
"x. c #6C8A55",
"c. c #6E8D59",
"v. c #668B54",
"b. c #728F59",
"n. c #719357",
"m. c #73935B",
"M. c #759A5D",
"N. c #799B5E",
"B. c #78975F",
"V. c #6C8F53",
"C. c #7DA15F",
"Z. c #7B9D61",
"A. c #779B62",
"S. c #71827E",
"D. c #7A827C",
"F. c #7DA262",
"G. c #82887D",
"H. c #82A765",
"J. c #86AC69",
"K. c #85AA68",
"L. c #8AB36D",
"P. c #84B16A",
"I. c #8DB372",
"U. c #92BB74",
"Y. c #9AC67C",
"T. c #A1CA7F",
"R. c #758481",
"E. c #7D8D8A",
"W. c #798A86",
"Q. c #828383",
"!. c #8B8B8B",
"~. c #868989",
"^. c #81928D",
"/. c #8E948B",
"(. c #839491",
"). c #949594",
"_. c #9C9C9C",
"`. c #979898",
"'. c #9EA19F",
"]. c #9AA7A4",
"[. c #A3A3A3",
"{. c #ACACAC",
"}. c #A8A7A7",
"|. c #B4B3B4",
" X c #BABABB",
".X c #B8B6B8",
"XX c #ABB2B1",
"oX c #BFBEC1",
"OX c #C3C3C3",
"+X c #CBCBCB",
"@X c #C7C6C8",
"#X c #D4D5D5",
"$X c #DDDDDD",
"%X c #D6D3D8",
"&X c #DFE0DF",
"*X c #E0DFE0",
"=X c #E5E5E5",
"-X c #E7E8E7",
";X c #EBEBEB",
":X c #E7E7E8",
">X c #F0EFEF",
",X c #EFF0EF",
"<X c #EFEFF0",
"1X c #EFF0F0",
"2X c gray97",
"3X c #F6F6F6",
"4X c #F5F5F5",
"5X c #F5F6F6",
"6X c #F7F8F7",
"7X c #F7F7F8",
"8X c #F9F7FA",
"9X c #F7F8F8",
"0X c #F7F8F8",
"qX c #F8F9F9",
"wX c #FEFFFE",
"eX c #FBFBFB",
"rX c #F8F7F7",
"tX c #F0EFF1",
/* pixels */
"-XqX;X0X;X0X;X0X;XqX;X0X;X2X;X2X;X2X;X2X;X2X;X2X;X4X;X4X4X1X2X;X4X;X2X;X2X;X2X;X2X;X2X;X2X;X2X;X2X;X2X;X2X;X2X;X2X;X2X;X6X;XqX-X",
"qX;X2X;X2X;X2X;X2X;X2X;X2X;X2X;X2X;X2X;X2X;X4X;X4XqXwX;X=X;X=X4XqX4X;X4X;X2X;X2X;X2X;X2X;X2X;X2X;X2X;X2X;X2X;X2X;X2X;X2X;X2X;XqX",
";X2X;X2X;X2X;X2X;X2X;X2X;X2X;X2X;X2X;X2X;X4X;XqX4X.X).<.X.+.] 1.|.;X2X;X2X;X2X;X2X;X2X;X2X;X2X;X2X;X2X;X2X;X2X;X2X;X2X;X2X;X2X;X",
"qX;X2X;X2X;X2X;X2X;X2X;X2X;X2X;X2X;X2X;X2X;XqX}.X.V k.C.L.P.U.L.| G.4X2X;X2X;X2X;X2X;X2X;X2X;X2X;X2X;X2X;X2X;X2X;X2X;X2X;X2X;XqX",
";X2X;X2X;X2X;X2X;X2X;X2X;X2X;X2X;X2X;X4X;XqX2.g | m.K.H.F.U.U.Y.Y.M.9.4X2X;X2X;X2X;X2X;X2X;X2X;X2X;X2X;X2X;X2X;X2X;X2X;X2X;X2X;X",
"qX;X2X;X2X;X2X;X2X;X2X;X2X;X2X;X2X;X2X;XqXG.l c.x.m.m.J.L.L.L.I.I.J.V.D.2X4X;X2X;X2X;X2X;X2X;X2X;X2X;X2X;X2X;X2X;X2X;X2X;X2X;XqX",
";X2X;X2X;X2X;X2X;X2X;X2X;X2X;X2X;X2X;XwX_.g z.c.z.m.x.m.B.H.H.N.N.Z.J.Z XXqX4X;X2X;X2X;X2X;X2X;X2X;X2X;X2X;X2X;X2X;X2X;X2X;X2X;X",
"qX;X2X;X2X;X2X;X2X;X2X;X2X;X2X;X2X;X2X;X) V ' O.O.' ` c.Z.A.F.Z.N.F.F.n.<.8X;X2X;X2X;X2X;X2X;X2X;X2X;X2X;X2X;X2X;X2X;X2X;X2X;XqX",
"-XqX;XqX;X-X;X2X;X2X;X2X;X2X;X2X;X4XqX Xl B v ' N ` H.U.L.m.n.A.A.N.m.K.O.!.eX;X2X;X2X;X2X;X2X;X2X;X2X;X2X;X2X;X2X;X2X;X2X;X2X;X",
";XqX;XqX;X2X;X2X;X-X6X;X$X-X0X;X2X;XwXG.& ] O.N c x.F.F.H.H.A.} m.x.F.J.L.m oXwX;X2X;X2X;X2X;X2X;X2X;X2X;X2X;X2X;X2X;X2X;X2X;XqX",
"qX;X2X;X2X;X2X;X2X-X4XqX-X2X;X2X2X2X7X9.g B ` { < h j < l M.U.V m } M.v j c #X4X4X;X2X;X2X;X2X;X2X;X2X;X2X;X2X;X2X;X2X;X2X;X2X;X",
";X2X;X2X;X2X;X2X;X2X;X2X;X4X;X2X4X&XwX8.& N $ O.o.$ # + s , 4 % 1 $ , t    XqX4X;X2X;X2X;X2X;X2X;X2X;X2X;X2X;X2X;X2X;X2X;X2X;XqX",
"0X;X2X;X2X;X2X;X2X;X2X;X2X;X2X;X2X4X4X-.1 N h V } z.j p a.+ # l.T.v.+ s 4  XeX;X2X;X2X;X2X;X2X;X2X;X2X;X2X;X2X;X2X;X2X;X2X;X2X;X",
";X2X;X2X;X2X;X2X;X2X;X2X;X2X;X4X2X+Xq 1 j ' V 4 M L.c.V 3 v [ { O.{ z B [ <.eX4X;X2X;X2X;X2X;X2X;X2X;X2X;X2X;X2X;X2X;X2X;X2X;XqX",
"0X;X2X;X2X;X2X;X2X;X2X;X2X;X4X2X#XH > h m h j V 4 m M.x.Z.O.| g ' k V n.N }.wX;X2X;X4X;X2X;X2X;X2X;X2X;X2X;X2X;X2X;X2X;X2X;X2X;X",
";X2X;X2X;X2X;X2X;X2X;X2X;X2X;XwXQ.F > < [ z 1 ` [ 5 B K.n.F.J.F.C.J.H.m b 4X4X4X;X2X;X2X;X2X;X2X;X2X;X2X;X2X;X2X;X2X;X2X;X2X;XqX",
"0X;X2X;X2X;X2X;X2X;X2X;X2X;X2X-X> J 9 n n ' 4 B m.B O.H.c.P.K.m.z.b.Z.' X 7.2X;X2X;X2X;X2X;X2X;X2X;X2X;X2X;X2X;X2X;X2X;X2X;X2X;X",
";X2X;X2X;X2X;X2X;X2X;X2X;XqXwX>.> H J 1 ` B m m m.N x.n.M.' ' { ' ' ` V 4 0 '.wX;X4X;X2X;X2X;X2X;X2X;X2X;X2X;X2X;X2X;X2X;X2X;XqX",
"0X;X2X;X2X;X2X;X2X;X2X;XwX.XQ.: > q L K k V n j B [ M.[ ' x.F.m.c.m.Z.[ o W $.|.qX4X4X;X4X;X2X;X2X;X2X;X2X;X2X;X2X;X2X;X2X;X2X;X",
";X2X;X2X;X2X;X2X;X4X;XeX8.> 7 H H > 8 W &.2 5 5 z ` z.' z.b.O.[ { { l.n   3./ X Q.;X4X4X;X2X;X2X;X2X;X2X;X2X;X2X;X2X;X2X;X2X;XqX",
"0X;X2X;X2X;X2X;X2X4X-X7.^ #.%.K K W > q K 3./ 2 $ g B ' B N b.K.N.N.} % : S.q > W L OXqX4X;X4X;X2X;X2X;X2X;X2X;X2X;X2X;X2X;X2X;X",
";X2X;X2X;X2X;X2X;X;X(  .;.3.].XX8 ..K > q q 4.4.W x $ $ % $ & & 1 $ O x ^.W * - L ..D.+X2X4X;X2X;X2X;X2X;X2X;X2X;X2X;X2X;X2X;XqX",
"0X;X2X;X2X;X2X;XwX7.w / / (.].6. .8 W > w 8 H Y ;.6.5./ ..%./ /  .^ ,.^.%.H - X q K ^.=.$X4X2X;X2X;X2X;X2X;X2X;X2X;X2X;X2X;X2X;X",
";X2X;X2X;X2X;XqX$XL H q ;.E.;.#.W 8 H - L x 2 q ^ L ^ 5.R.R.E.E.W.E.;.P K w > . H x &./ }.wX;X4X;X2X;X2X;X2X;X2X;X2X;X2X;X2X;XqX",
"0X;X2X;X2X;X2XqX|.q H H ,.&.%.%.K > q = X 8 H H w q q 9 F W $.$.#.L K 8 F H X . q 8 R $.~.qX4X;X2X;X2X;X2X;X2X;X2X;X2X;X2X;X2X;X",
";X2X;X2X;X2X;XwX:.q q L &.&.;.#.8 > = > X > > > K ^ W K K K W W W K K W q ; q   = ; J #.( ;X;X2X;X2X;X2X;XqX;X2X;X2X;X2X;X2X;XqX",
"qX;XqX;X2X;X2X2X`.> q L %./ q > > X > 8 X F ^ q > > 8 K L q q q q q > ; > ^ ,.X . - > q H =XqX;X2X;X2X;XqX2X=X;X0X;X0X;XqX;X2X;X",
"qX;XqX;X;X;X2XwX@X: = > > = > 8 = - q 8 X F ,.,.;.$.K 8 W G U U U U E ! ! #.5.X > X 8 = =.wX-X2X;X2X;X6X-X;X2X;X6X;X0X;XqX-X*X-X",
";X2X;X2X;X2X;XwX@X8 8 8 8 0 H 8 q H : - X F &.%.&.(./ E I d u u f u f a =.W #.X > 8 ; > `.qX4X-X4X;X2X=X-X2X;X4X;X2X;X2X;X2X:XqX",
"0X;X2X;X2X;X2X;XwX7.o > q q 8 ^ %.w * X = H ,.%.$.4...E a e.w.q.q.0.p.0.i W ^ . 8 ~ w !.wX-XwX4X4X2XwX2XwX2XwXrXqX;X2X;X2X;X0X;X",
";X2X;X2X;X2X;XqX#Xp > 8 q / 4.L W F   . 8 6 / ;.&.3.^ E d u.d.r.t.d.h.q.S W / . 8 ;...~ 4XeXOX).[.`.`._.`.`.`.).+XwX;X2X;X2X;XqX",
"qX;X2X;X2X;X2X0X XX 8 H W W ;.,.8 -   w P = > L $.3.Y W a i.h.g.u.j.h.0.S Q q X L K F Y ;X;X..,.^.E.E.W.E.E.^.R.( -XqX;X2X;X2X;X",
";X2X;X2X;X2X;XwX_.o 8 /  .;.^ $.q   > W #.K > = 8 W W E f.u.s.y.h.d.h.w.I F X - 9 Y %.> }.=XR.%.( 4.;.;.;.=.%./ 2.wX;X2X;X2X;XqX",
"0X;X2X;X2X;XwXOXK 5.H H L %.E.L > q q 8 / $.F F 8 > P Q f.i.y.q.h.y.s.w.I F ; X q K H 9 P ~.5.L 7.:.2.2.2.E *.F  XqX4X;X2X;X2X;X",
";X2X;X2X;X2XqX7.q R.K 8 R F F 8 P ~ 8 8 q L $.;.W > F Q a p.r.0.s.s.d.e.I K 8 X H W W 4.S.#./ ~ 4.:.:.:.:.@.G / >X2X;X2X;X2X;XqX",
"qX;X2X;X7X-XwX>.w 5.P H W F > #  X}.> 8 8 #.&.&. .7 L w W y r r r a.r u K 8 6 = w K 3.&.$.4.R ~ ( @.=.=.( 2.J {.wX;X2X;X2X;X2X;X",
";X;X-X;X4X-X2X`.8 / 7 8 F F q   @X;XH H 8 K &.&.#.6 / J q ^ R W W E W E w 8 = > = Y #.%.W %.K L A 8 H 8 J H @.qX;X2X;X2X;X2X;XqX",
";X2X;X2X;X2X;X4X~ = K $.;.4.^...|.,XL L q q  .3.;.> W 4./ L W W W W W W W w X > > 8 L W %.~ q w b } h } q q  X6X2X;X2X;X2X;X2X;X",
"qX;X2X;X2X;XqX-Xq - L W ,.%.E.;.].qXL > 8 = w K K > q ( ( /  . .#./ / ;.F = H X X 8 e q 7.H 2 M z P.m F.z ( 4X2X;X2X;X2X;X2X;XqX",
";X2X;X2X;X2X<X-XH - F W $.&.R./ }.|.X q > K F 8 L q 8 w J K K K K L q K H 8 q 8.H - 8 8 L w c L.m x.n x.< 7.wX;X2X;X2X;X2X;X2X;X",
"7X;X2X;X2X;X2X2X>.> 8 L ^ ;.R.Q |.{.- 8 > P A &.S.W / ^ 6.S.S.S.S.R.,.Q #.w 8 OX$X=.q - X = n x.m { B V >.-X;X2X;X2X;X2X;X2X;XqX",
";X2X;X2X;X2X;XwX{.: > L ^ W 3.E [.OXX 8 - 8 > W 3.K q 8 K $.%.$.%.%.W F F > X |.wXqX XP X c N V 5 M & b tX4X4X;X2X;X2X;X2X;X2X;X",
"0X;X2X;X2X;X2X;X4XH 8 8 X X =   |.wX8.. X . . X > X     - > > > > > - . X O >.qX;X4X2X2XQ.>   * X * = [.qX4X;X2X;X2X;X2X;X2X;XqX",
";X2X;X2X;X2X;X4XqX!.X = 8 H 9 z !.wX X- 8 > > w - > > . = > > > > >   > A > 7.qX4X;X4X;XqX+X`.7.7.Q.#X4X2X;X2X;X2X;X2X;X2X;X2X;X",
"0X;X2X;X2X;X2X;XwX@X8 q W ;.T T.z.). X8 8 K F W ~ W ~ = - / ^ ^ ^ q - J L L H 4X;X2X;X4X-XqXqXwXqXwX4X2X;X2X;X2X;X2X;X2X;X2X;XqX",
";X2X;X2X;X2X;X2X4X=XP q F R T m.A.+.!.q 8 P %.~ ../ W F X K ^ / L = q L ( ~ $.-X2X;X2X;X2X;X4X;X4X;X4X;X2X;X2X;X2X;X2X;X2X;X2X;X",
"0X;X2X;X2X;X2X;XwX#X8 8 8 w T V & A.-.A e H &.3.^ ~ ( K X 8 P x = : W $./ &...;X;X2X;X2X;X2X;X2X;X2X;X2X;X2X;X2X;X2X;X2X;X2X;XqX",
";X2X;X2X;X2X;X2X;X;Xq X > 2 l.+.~ k :.D > K &.&.6.;.~ q . ; > X - P H $.4.&.~ -X2X;X2X;X2X;X2X;X2X;X2X;X2X;X2X;X2X;X2X;X2X;X2X;X",
"2X;X2X;X2X;X2X;X4X7X1.g N j K.+.%XOX[.8 8 F ,.#./ %.%.> >.|.  - > q #.W W W L ;X;X4X;X2X;X2X;X2X;X2X;X2X;X2X;X2X;X2X;X2X;X2X;XqX",
";X2X;X2X;X2X;X2X;XwX/.g N c m.} @XwX-XL - > W K Q W W : !.=X- > > q 8 L 3.;.$.{.wX;X2X;X2X;X2X;X2X;X2X;X2X;X2X;X2X;X2X;X2X;X2X;X",
"0X;X2X;X2X;X2X;X4X4X$X2 g n ] v.[.wX$Xq - - - ,.6.3.E.8 +XwX~ = > = = K ,.,.3.Q.qX4X;X2X;X2X;X2X;X2X;X2X;X2X;X2X;X2X;X2X;X2X;XqX",
";X2X;X2X;X2X;X2X;X2X4X$X~ h h g `.wX|.= 8 - > K &.&.3.F *XwX( . 8 8 > q #.3.Q !.wX;X2X;X2X;X2X;X2X;X2X;X2X;X2X;X2X;X2X;X2X;X2X;X",
"0X;X2X;X2X;X2X;X2X;X4X4XqXOX X.X-XwX|.X 8 > ; L &.$.%.8 $XwX(   - > = q ^ %.F 8.wX4X;X2X;X2X;X2X;X2X;X2X;X2X;X2X;X2X;X2X;X2X;XqX",
";X2X;X2X;X2X;X2X;X2X;X4X;XwX2XwX;XwX}.- > - X 8 q q - :.qX;XH X - > 7 X = . P $X2X;X2X;X2X;X2X;X2X;X2X;X2X;X2X;X2X;X2X;X2X;X2X;X",
"6X;X2X;X2X;X2X;X2X;X2X;X2X;X4X;X4X2X:.> > K H > 8 8 > 8.wX#X8 8 8 W W K W K :.rX;X2X;X2X;X2X;X2X;X2X;X2X;X2X;X2X;X2X;X2X;X2X;XqX",
";X2X;X2X;X2X;X2X;X2X;X2X;X2X;X2X;XwX:.8 q F K 5.S.R.&.7.wX#Xq q 8 w K 3.5.3.~ ;X2X;X2X;X2X;X2X;X2X;X2X;X2X;X2X;X2X;X2X;X2X;X2X;X",
"0X;X2X;X2X;X2X;X2X;X2X;X2X;X2X;X4XqX=.: 8 = ^ ,.%.3.K _.wX4X~ > > > / $.^ W L 2X;X2X;X2X;X2X;X2X;X2X;X2X;X2X;X2X;X2X;X2X;X2X;XqX",
";X2X;X2X;X2X;X2X;X2X;X2X;X2X;X2X;XwXXX6 8 8 L W L ~ w  XqXqX{.> 8 8 K K q q = OXwX;X2X;X2X;X2X;X2X;X2X;X2X;X2X;X2X;X2X;X2X;X2X;X",
"qX;X2X;X2X;X2X;X2X;X2X;X2X;X2X;X2X;X-XJ > q q w q q X |.eXqX@Xq e q q 8 K $.$.-._.;X;X2X;X2X;X2X;X2X;X2X;X2X;X2X;X2X;X2X;X2X;XqX",
";X2X;X2X;X2X;X2X;X2X;X2X;X2X;X0X;X=X;XL 8 q > Y 3.R.6.8.;XqX|.X = = > > ^ 6.W.E.$.7.,X-X2X;X2X;X2X;X0X;X2X;X2X;X2X;X2X;XqX;X2X;X",
"0X;X2X;X2X;X2X;X2X;X2X;X2X;X2XqX;X2X;X~ X > - W 5.6.^.,.[.wX4X`.( :.=.- ; > 7 8 2 !.wX=X=X;X2X;X2X;XqX;X;X2X;X2X;X2X;XqX2X2X;XqX",
";X2X;X2X;X2X;X2X;X2X;X2X;X2X;X-X2X;X2X=X_.~ q - 7 0 w : }.wX;XeXqXeX2X#X@X+XOX+XOX;X;X2X;X2X;X2X;X2X;X2X;XqX;XqX-X-X;XqX;X-X;XqX",
"qX;X2X;X2X;X2X;X2X;X2X;X2X;X2X;X-X2X;X2XqXqX-X|.}.{.}.|.4X1X4X;X4X;X4X4XqX2XqX2XqX;X2X;X2X;X2X;X2X;X2X;X2X;X2X;X2X;X2X;X2X;X2X;X",
";XqX;XqX;XqX;XqX;XqX;X0X;X0X;X=X4X;X2X;X4X;X2XqXqXqXeX6X4X4X;X4X;X2X;X4X;X4X;X4X;X2X;X2X;X2X;X2X;XqX-X=X;XqX;XrX;XqX;XqX;XqX;XqX"
};
