/* XPM */
static const char *player[] = {
/* columns rows colors chars-per-pixel */
"64 64 201 2 ",
"   c #05090D",
".  c #040507",
"X  c #0F171D",
"o  c #15181E",
"O  c #030D19",
"+  c #191E24",
"@  c #2F1F23",
"#  c #1D2126",
"$  c #1E2429",
"%  c #12273C",
"&  c #22252B",
"*  c #25292E",
"=  c #26272B",
"-  c #252C33",
";  c #2A2E34",
":  c #2B3037",
">  c #2D333B",
",  c #303336",
"<  c #31353C",
"1  c #37393D",
"2  c #3A3B3D",
"3  c #31090F",
"4  c #55131C",
"5  c #71000E",
"6  c #5C343C",
"7  c #112A42",
"8  c #043A5C",
"9  c #2F3842",
"0  c #2A3543",
"q  c #333B44",
"w  c #3B3E43",
"e  c #353F48",
"r  c #3E4145",
"t  c #37404A",
"y  c #3A424C",
"u  c #3D4651",
"i  c #3F4851",
"p  c #184F6F",
"a  c #434345",
"s  c #41464B",
"d  c #45494D",
"f  c #4B4B4D",
"g  c #434B55",
"h  c #4A4E53",
"j  c #454E59",
"k  c #514F54",
"l  c #4D5155",
"z  c #46515B",
"x  c #4A535C",
"c  c #515355",
"v  c #52565A",
"b  c #53595D",
"n  c #5C5A5D",
"m  c #61555A",
"M  c #4E5964",
"N  c #4C5662",
"B  c #555C62",
"V  c #5B5E62",
"C  c #545E69",
"Z  c #675F61",
"A  c #5C6166",
"S  c #5C646C",
"D  c #5F686E",
"F  c #56626D",
"G  c #5B6570",
"H  c #5C6873",
"J  c #616365",
"K  c #616669",
"L  c #63696E",
"P  c #6B6B6C",
"I  c #6A666A",
"U  c #7A6E6F",
"Y  c #646C73",
"T  c #6B6E72",
"R  c #626E79",
"E  c #736D70",
"W  c #6A7174",
"Q  c #677179",
"!  c #6C757C",
"~  c #737374",
"^  c #73777B",
"/  c #72797E",
"(  c #7B7B7B",
")  c #7C7171",
"_  c #8E0011",
"`  c #AA091E",
"'  c #A82A3E",
"]  c #96404F",
"[  c #EE4B60",
"{  c #FD4A63",
"}  c #3F7C9F",
"|  c #747D84",
" . c #7B7F83",
".. c #737F89",
"X. c #6D7882",
"o. c #3380AE",
"O. c #778087",
"+. c #7B8286",
"@. c #778288",
"#. c #7C858B",
"$. c #738889",
"%. c #7F8890",
"&. c #4F97C1",
"*. c #54AADA",
"=. c #838282",
"-. c #828A8F",
";. c #8A8A8B",
":. c #80878E",
">. c #838C93",
",. c #8B8F93",
"<. c #869096",
"1. c #899196",
"2. c #8C949B",
"3. c #8E999F",
"4. c #959596",
"5. c #91999E",
"6. c #9A9798",
"7. c #8A9FA2",
"8. c #959EA3",
"9. c #989FA5",
"0. c #96A0A6",
"q. c #99A1A6",
"w. c #9BA4A9",
"e. c #9DA9AE",
"r. c #A4A4A4",
"t. c #A8A8A7",
"y. c #A0A6AC",
"u. c #A1AAAF",
"i. c #AAAAAA",
"p. c #A4ACB1",
"a. c #A7B0B5",
"s. c #A8B1B6",
"d. c #ACB6BB",
"f. c #AEB8BE",
"g. c #A7B3B9",
"h. c #B5B5B4",
"j. c #B2BABF",
"k. c #BBBBBB",
"l. c #B5B7B9",
"z. c #B5A7A8",
"x. c #8BBCD9",
"c. c #B1BBC1",
"v. c #C0BFC0",
"b. c #B5C0C6",
"n. c #B9C5CB",
"m. c #BBC4CB",
"M. c #BDCBD2",
"N. c #AED7F0",
"B. c #B6DEF5",
"V. c #C4C3C3",
"C. c #CCCBCB",
"Z. c #D0CFCF",
"A. c #D0D0CF",
"S. c #C1CDD2",
"D. c #CAD5DC",
"F. c #D2D1D1",
"G. c #DCDBDC",
"H. c #D6E4EA",
"J. c #E5E5E5",
"K. c #E7E8E7",
"L. c #E8E8E7",
"P. c #E8E7E8",
"I. c #E7E8E8",
"U. c #EFEFEF",
"Y. c #EEEEEE",
"T. c #EDEDED",
"R. c #EAEAEA",
"E. c #EFF0EF",
"W. c #EFF0EF",
"Q. c #F0F0EF",
"!. c #EFEFF0",
"~. c #F0EFF0",
"^. c #EFF0F0",
"/. c gray94",
"(. c #F1F1F1",
"). c #F3F3F3",
"_. c #F2F1F2",
"`. c #F3F4F3",
"'. c #F4F4F4",
"]. c #F5F5F5",
"[. c gray97",
"{. c #F6F6F6",
"}. c #F6F6F6",
"|. c #F3F3F3",
" X c #F7F8F7",
".X c #F7F8F7",
"XX c #F8F8F7",
"oX c #F8F7F8",
"OX c #F7F8F8",
"+X c #F8F8F8",
"@X c #F9F9F9",
"#X c #F9F8F9",
"$X c gray98",
"%X c #FBFBFB",
"&X c #FEFEFE",
"*X c white",
"=X c #FEFFFF",
"-X c #FCFCFC",
";X c #FDFDFD",
":X c #F7F7F8",
">X c #F7E7E6",
/* pixels */
"&X&X&XT.R.R.'.&X&X+XR.R.T.&X&X&XT.R.R.'.&X&X'.R.R.R.R.R.T.&X&X&XR.R.R.+X&X&X^.R.R.'.&X&X'.R.R.T.&X&X&XR.R.R.+X&X&X/.R.R./.&X&X&X",
"&X&X&XT.R.R.'.&X&X+XR.R.T.&X&X&XT.R.R.'.&X&X'.R.R.R.R.R.T.&X&X&XR.R.R.-X&X&X/.R.R..X&X&X'.R.R./.&X&X&XR.R.R.+X&X&X/.R.R./.&X&X&X",
"&X&X&XT.R.R.'.&X&X+XR.R.T.&X&X&XT.R.R.'.&X&X'.R.R.R.R.R.T.&X&X%XR.R.R.+X&X&X/.R.R.+X&X&X'.R.R./.&X&X&XR.R.R.+X&X&X/.R.R./.&X&X&X",
"T.T.T.+X&X&X'.T.T./.&X&X+XT.T.T.+X&X&X/.T.T./.&X&X'.J.J.J.R.R.R.+X+X+XT.R.R.'.+X+XT.T.T.'.&X&XOXT.T.T.+X&X&X/.T.T.'.&X&X'.T.T.T.",
"R.R.R.+X&X&X'.R.R./.&X&X&XR.R.R.+X&X&X/.R.R./.&X&X+X!.T./.'.'.'.&X&X&X+X.X.X&X&X&X'.R.R.'.&X&X+XR.R.T.&X&X&XT.R.R.'.&X&X+XR.R.R.",
"R.R.R.+X&X&X'.R.R./.&X&X&XR.R.R.+X&X&X/.R.R./.&X&XV.r.t.t.t.t.t.l.k.h.t.t.t.h.h.h.k.T.R.'.&X&X+XR.R.R.&X&X&XT.R.R.'.&X&X+XR.R.R.",
"+X+X+X/./.T.'.+X+X'./././.+X+X+X/./.T.'.+X'.&XG.P K K A A A A A A A A A A A A A K & 6.&X/.W././.+X+X+X/././.'.+X+X'./.W./.+X+X+X",
"&X&X&XT.R.R.'.&X&X+XR.R.R.&X&X&XT.R.R.'.&X&X4.J -.e.p.p.p.p.p.p.p.s.s.s.s.p.d.s.! > ( &X/.R.R.T.&X&X&XR.R.R.+X&X&X/.R.R./.&X&X&X",
"&X&X&XT.R.R.'.&X&X+XR.R.R.&X&X&XT.R.R.'.&X;.| b.c.f.d.d.d.d.d.f.e.9.q.q.9.w.#.y x t ( &X/.R.R.T.&X&X&XR.R.R.+X&X&X/.R.R./.&X&X&X",
"'.'.'.'.'.'.'.'.'.'.'.'.'.'.`.`.'.'.`.+XG.r 2.<.%.>.>.>.>.>.>.>.@.| | | | @.s y H t ^ &X/.'.'.'.'.`.`.'.'.'.'.'.'.'.'.'.'.'.'.'.",
"R.R.R.+X&X&X/.R.R.W.&X&X&XR.R.R.+X&X&X'.Z.T g.8.q.9.9.9.9.9.9.9.q.q.q.9.<.p.B z G t ~ './.&X&X+XR.R.R.&X&X&XT.R.J.'.&X&X+XK.R.R.",
"R.R.R.+X&X&X/.R.R.~.&X&X&XR.R.R.+X&X&X'.C.P f.9.w.w.w.w.w.w.w.w.w.q.w.| z 1.A g G t ~ OX/.&X&X+XR.R.R.&X&X&XT.R.R.'.&X&X+XI.R.R.",
"/././.'.+X+X'./././.+X+X'./././.:X+XoX+XF.W n.y.p.e.w.w.w.w.w.u.p.u.a.2.C 2.A g H t ~ &X/.+X+X'./././.+X+X+X/././.'.+X+X'.Q././.",
"&X&X&XT.R.L.'.&X&X+XR.R.R.&X&X&XT.R.J.+XT.2 A A b ,.p.w.w.w.p.| b A b / u.p.B g H e ( &X/.R.R.T.&X&X&XR.R.R.+X&X&X/.R.R./.&X&X&X",
"&X&X&XT.R.R.'.&X&X+XR.R.T.&X&X&XT.R.J.&Xk.l >.1./ g 1.e.q.u.| / 2.>./ < +.a.B g G e ( &X/.R.R.T.&X&X&XR.R.R.+X&X&X/.R.R./.&X&X&X",
"-X+X&X/.T.T.'.&X&X'.T.T.T.+X-X-X~.T.T./.,.M.n.p.f.Y y q.p.#.L H.b.p.f.#.q 5.A g G e ( &X/.T.T./.&X-X+XT.T.T.+X&X&X/.T.T./.&X+X+X",
"R.R.R.+X&X&X'.R.R./.&X&X&XT.R.R.+X&X&XV.h ^ L T A i ; :.p.| B ~ Y Y T x - / A g S t ~ +X/.&X&X+XR.R.T.&X&X&XT.R.R.'.&X&X+XR.R.R.",
"R.R.R.+X&X&X'.R.R./.&X&X&XR.R.R.+X&X&XV.w % . O 0 Z , ! s.+.s 7     % I w F A g G t ~ .X/.&X&X+XR.R.T.&X&X&XT.R.R.'.&X&X+XR.R.R.",
"R.R.R.+X&X&X'.R.R./.&X&X&XR.R.R.+X&X&Xh.=.*.p o.x.>Xk Q d.! 4.*.8 } &.>X~ B A g G t ~ +X/.&X&X+XR.R.T.&X&X&XT.R.R.'.&X&X+XR.R.R.",
"&X&X&X/.T.R.'.&X&X.XT.T.T.+X&X&XT.T.T.T.=.f.B.B.~.4.s #.u.8.I c.B.N.G.z.g ! V g G e ( &X/.T.T./.&X&X+XT.T.T.+X&X&X|.T.T./.&X&X&X",
"&X&X&XT.R.R.'.&X&X+XR.R.T.&X&X&XT.R.R.&XJ.a U ) I t ! w.q.p.@.h ) U E g C u.B g G e ( &X/.R.R.~.&X&X&XR.R.R.+X&X&X/.R.R./.&X&X&X",
"&X&X&XT.R.R.'.&X&X+XR.R.T.&X&X&XT.R.P.+XT.q M y y | w.q.w.q.p.>.x u y Q 9.p.B g G e ( &X/.R.R.T.&X&X&XR.R.R.+X&X&X/.R.R./.&X&X&X",
"/.W.W.'.+X+X'.!.T./.+X+X+X/.W.W.'.+X+X+XF.L c.1.3.q.L l B b v 1.s.2.8.u.q.p.B g G t ^ &X/.+X+X'.W.~.T.R.R.R.T././.T.R.R.T./.T.~.",
"R.R.R.+X&X&X`.R.R.W.&X&X&XR.R.R.+X&X&X'.Z.Y f.w.u.A 2.s.0.e.p.A -.p.w.w.q.p.B g S y ~ './.&X&X+XI.R.R.R.R.R.R.R.R.R.R.R.R.R.R.R.",
"R.R.R.+X&X&X/.R.R.^.&X&X&XR.R.R.+X&X&X'.C.L f.9.q.5.e.<.| #.w.9.5.w.q.w.q.p.B j H q ~ &X/.&X&X+XR.R.R.R.R.R.R.R.R.R.R.R.R.R.R.R.",
"'.'.'.'.'.'.'.'.'.'.'.'.'.'.'.'./.Q.'.&XJ.W n.e.p.p.p.p.a.p.p.p.p.p.p.p.p.d.V u y & < 1 k.&XT./.R.R.R.'.'.'.T.R.R.Q.'.'./.R.R.R.",
"&X&X&XT.R.L.'.&X&X+XR.R.R.&X&X&XT.&Xk.P ~ , B b b b b b b b b b b b b b b B q : g x <   ;.'./.J.R.R.T.&X&X&XT.R.R.'.&X&X+XR.R.R.",
"&X&X&XT.R.R.'.&X&X+XR.R.T.&X&X&XJ.( s <.b - y y y y y y y y y y y y y y t t z g q * * s a 2 h.'.R.R.R.&X&X&XT.R.R.'.&X&X+XI.R.R.",
"+X+X+X/././.'.+X+X'./././.'.+XT.v y W M.s D Y D D D D D L L L D D D D D L D q y t b ! n.Y >.l 4.'.W./.+X+X+X/././.'.+X+X'./././.",
"R.R.R.+X&X&X/.R.R.T.&X&X&XJ.:Xt.l ! Y 1.#.S.f.c.c.c.c.c.c.c.c.c.c.j.n.n.c.c.B x g A / e.j 5.u s &X&X&XR.R.R.+X&X&X/.R.K.T.&X&X&X",
"R.R.R.+X&X&X'.R.R./.&X&X&XR.'.t.v A A #.| s.8.9.9.9.9.9.9.9.9.9.9.w.n f 3.p.B z g b ! >.s V y c &X&X&XR.R.R.+X&X&X/.R.R./.&X&X&X",
"T.T.T.+X&X&X'.T.T./.&X&X+XR.+Xt.& x b Y | f.q.w.w.w.w.w.w.w.w.w.e.m ] ' 6 e.B z g s V | y V 9 r %X&X+XT.T.T.+X&X&X/.T.T./.&X+X+X",
"&X&X&XT.R.R.'.&X&X+XR.R.T.&X&X/.4.& $ t @.d.q.w.w.w.w.w.w.w.w.y.7.4 [ { 5 $.A z g > q F & > * t./.R.T.&X&X&XT.R.R.'.&X&X+XR.R.R.",
"&X&X&XT.R.R.'.&X&X+XR.R.T.&X&X&XC.b Y X O.f.9.w.w.w.w.w.w.w.w.w.0.@ _ ` 3 >.A z g o ; w v - V &XJ.R.R.&X&X&XT.R.R.'.&X&X+XR.R.R.",
"&X&X&XT.R.R.'.&X&X+XR.R.T.&X&X&XV.v c.g | f.9.w.w.w.w.w.w.w.w.w.w.#.d a R p.B g S - d q.9.x J &XI.R.T.&X&X&XT.R.R.'.&X&X+XR.R.R.",
"T.T.T.+X&X&X'.T.T./.&X&X+XT.R.'.F.s >.g | f.9.w.w.w.w.w.w.w.w.w.w.y.d.f.p.p.B j G g r ,.! q V -X+X&X+XT.T.T.+X&X&X/.T.T./.&X%X&X",
"R.R.R.+X&X&X'.R.R.^.&X&X&XR.R.'.C.l p.x | f.9.w.w.w.w.w.w.w.w.w.w.w.A d #.a.B j S i l w.2.g b +X&X&X&XR.R.R.+X&X&X/.R.R./.&X&X&X",
"R.R.R.+X&X&X/.R.R.W.&X&X&XR.I./.F.y ,.y | f.0.w.w.w.w.w.w.w.w.q.u.b / 2.q p.B g S g y >.| e b +X&X&X&XR.R.R.+X&X&X/.R.R./.&X&X&X",
"+X+X+X/./.T.'.+X+X'.~././.+X'.&XC.b b.B | f.9.w.w.w.w.w.w.w.w.q.e.g A  .> 9.V g G y v j.q.z J &XT.W./.+X+X+X/.T.T.'.+X+X'.T././.",
"&X&X&XT.R.R.'.&X&X+XR.R.T.&X&X&XV.r >.y | f.9.w.w.w.w.w.w.w.w.q.w.q.b y ! u.B g S g r #.| q V &XJ.R.R.&X&X&XT.R.J.'.&X&X+XJ.R.R.",
"&X&X&XT.R.R.'.&X&X+XR.R.T.&X&X&XV.c j.B | f.9.w.w.w.w.w.w.w.w.w.w.w.w.w.q.p.B g S u l s.8.g K &XJ.R.R.&X&X&XT.R.K.'.&X&X+XK.R.R.",
"'.'.'.'.'.'.'.'.'.'.'.'.'.'./.&XC.l 0.g | f.9.w.w.w.w.w.w.w.w.w.w.w.w.w.q.p.B g S i h 8.%.u V &X/.'.'.'.'.'.'.'.'.'.'.'.'.'.'.'.",
"R.R.R.+X&X&X/.I.K.T.&X&X&XR.K./.F.d 3.g | d.0.w.w.w.w.w.w.w.w.w.w.w.w.w.q.p.B g S i s 2.#.y c +X&X&X&XR.R.R.+X&X&X/.R.I.^.&X&X&X",
"R.R.R.+X&X&X|.R.R.T.&X&X&XR.P.'.A.l j.x | f.9.w.w.w.w.w.w.w.w.w.w.w.w.w.q.p.B g F g h p.9.g n &X&X&X&XR.R.R.+X&X&X/.R.R./.&X&X&X",
"/././.'.+X+X'./././.+X+X'./.T.+Xh.d r 1 O.d.9.q.q.q.q.q.q.q.q.q.q.q.q.q.9.u.B g G y ; s , & a J.+X'.'./././.'.+X+X'./././.+X+X+X",
"&X&X&XT.R.K.'.&X&X+XR.R.R.&X&X&XP 0.v >./ j.u.p.p.p.p.p.p.p.p.p.p.p.p.p.u.d.A g g $ V +.h g # t.+XJ.R.&X&X&XT.R.L.'.&X&X+XR.R.R.",
"&X&X&XT.R.R.'.&X&X+XR.R.T.&X&X&X~ <.h 1.w A B B B B B B B B B B B B B B B A q : q - b +.v g + t.+XJ.T.&X&X&XT.R.R.'.&X&X+XR.R.R.",
"&X+X&X/.T.T.'.&X&X'.T.T.T.+X+X&XL -.f 0.# q N j z z z z z x x x x x z z z z x 9 q X b  .l y - V.'.I.T.+X-X&X/.T.T.'.&X&X'.T.T.T.",
"R.R.R.+X&X&X'.R.R./.&X&X&XT.R./.k.f 2 h T d u x x x z x x y u u y y x x x j x q #  .;.r 2 1 k.&XJ.R.R.R.R.R.+X&X&X/.R.R./.&X&X&X",
"R.R.R.+X&X&X'.R.R./.&X&X&XR.R.R.+X|.'.J./.V.k + : - : * ; ( ~ ~ ( ( ; & ; ; > o V.&XR.G.R.'.&X+XR.R.R.R.R.R.+X&X&X/.R.R./.&X&X&X",
"R.R.R.+X&X&X'.R.R./.&X&X&XR.R.R.+X&X&X'.J.&Xk.d ..! R z A &X'.+X&X&XV R X.! R < C.+XJ.T.'.&X&X+XR.R.R.R.R.R.+X&X&X/.R.R./.&X&X&X",
"-X%X&X/.T.T.'.&X&X.XT.T.T.+X&X&X/.T.R.'.+X&Xh.L w.5.Y e V &X'.'.R.R.J 8.2.>.C : k.&X+X&X'.T.T./.&X&X+XR.R.R.T.T.T.R.R.R.R.T.T.T.",
"&X&X&XT.R.R.'.&X&X+XR.R.T.&X&X&XT.R.R.'.&X&Xh.B 8.>.R q n &X-X&XR.T.A >.<.@.N : k.&X&X&X'.R.R.~.&X&X&XT.R.R.R.R.R.R.R.R.R.R.R.R.",
"&X&X&XT.R.R.'.&X&X+XR.R.T.&X&X&XT.R.R.'.&X&Xl.A 8.1.Y q V &X&X&XR.R.J 1.,.>.M - k.&X&X&X'.R.R.T.&X&X&XR.R.R.R.R.R.R.R.R.R.R.R.R.",
"/./.^.'.+X+X'.!.T./.+X+XoX/././.'.+X+X'.T.&Xk.Y e.9.! t J +XT./.'.+XL 9.8.<.F ; V.&XT.W.'.+X+X'./././.+X+X+XT.R.R.R.R.R.T.+X+X+X",
"R.R.R.+X&X&X/.R.R.W.&X&X&XR.R.R.+X&X&X/.R.'.J d ! K j - c XXR.R.&X+Xn A Y A q & V.-XJ.R.'.&X&X+XR.R.R.&X&X&XT.R.R.R.R.R./.&X&X&X",
"R.R.R.+X&X&X/.R.R.T.&X&X&XR.R.R.+X&X&X/.R.~ l 1.>.1.! z y ;.T.R.&X=.| 1.>.,.C g b F.T.J.'.&X&X+XR.R.R.&X&X&XT.R.R.R.R.R./.&X&X&X",
"'.'.'.'.'.'.'.'.'.'.'.'.'.'.'.'.'.'./.+XG.v D.b.s.a.#.G C d /.&X;.9.D.s.d.8.R R q 6.&X/.'.'.'.'.'.'.'.'.'.'.'.'.'.T.R.R.T.'.'.'.",
"&X&X&XT.R.J.'.&X&X+XR.R.R.&X&X&XT.R.J.&XR.d #.+.-.W 9 y 9 c &X&XP Y -.+.#.g q i - h.&X&X'.R.R.T.&X&X&XR.R.R.+X&X&X/.R.R.R.R.R.R.",
"&X&X&XT.R.R.'.&X&X+XR.R.T.&X&X&XT.R.R.+X+X;.( ~ ~ ( ( ( ( G.&X&Xt.P ~ ( =.=.~ P 4.+X&X&X'.R.R.W.&X&X&XR.R.R.+X&X&X/.R.R.T.R.R.R.",
"+X+X+X/././.'.+X+X'./././.+X+X+X/././.'.+X&X&X&X&X&X&X&X&X%X+X'.+X&X&X&X&X&X&X&X+X'.+X+X'./.^./.+X+XXX/././.'.+X+X'.T.'.'.T.R.R.",
"R.R.R.+X&X&X'.K.I.T.&X&X&XR.R.R.+X&X&X/.R.J.T.&X&X'.`.&X'.J.R.R.&X&X&XR.J.J.'.&X&X/.R.K.`.&X&X+XR.R.R.&X&X&XT.R.R.'.&X&X+XR.R.R.",
"R.R.R.+X&X&X'.R.R./.&X&X&XR.R.R.+X&X&X/.R.R./.&X&X+X'.&X+XR.R.T.&X&X&XT.R.R.+X&X&X/.R.R.'.&X&X+XR.R.T.&X&X&XT.R.R.'.&X&X+XR.R.R.",
"R.R.R.+X&X&X'.R.R./.&X&X&XR.R.R.+X&X&X/.R.R./.&X&X+X'.&X+XR.R.T.&X&X&XT.R.R.+X&X&X/.R.R.'.&X&X+XR.R.T.&X&X&XT.R.R.'.&X&X+XR.R.R."
};
